<mxfile host="65bd71144e">
    <diagram id="KQfJM_kQwMqu3LK5JCae" name="Page-1">
        <mxGraphModel dx="279" dy="325" grid="1" gridSize="10" guides="1" tooltips="1" connect="1" arrows="1" fold="1" page="1" pageScale="1" pageWidth="850" pageHeight="1100" background="#DBDBDB" math="0" shadow="0">
            <root>
                <mxCell id="0"/>
                <mxCell id="1" parent="0"/>
                <mxCell id="2" value="Visiteur" style="shape=umlActor;verticalLabelPosition=bottom;verticalAlign=top;html=1;outlineConnect=0;" vertex="1" parent="1">
                    <mxGeometry x="50" y="50" width="30" height="60" as="geometry"/>
                </mxCell>
                <mxCell id="3" value="Utilisateur" style="shape=umlActor;verticalLabelPosition=bottom;verticalAlign=top;html=1;outlineConnect=0;" vertex="1" parent="1">
                    <mxGeometry x="50" y="190" width="30" height="60" as="geometry"/>
                </mxCell>
                <mxCell id="5" value="Administrateur" style="shape=umlActor;verticalLabelPosition=bottom;verticalAlign=top;html=1;outlineConnect=0;" vertex="1" parent="1">
                    <mxGeometry x="510" y="20" width="30" height="60" as="geometry"/>
                </mxCell>
                <mxCell id="8" value="" style="whiteSpace=wrap;html=1;aspect=fixed;strokeColor=#33FFFF;fillColor=#000000;" vertex="1" parent="1">
                    <mxGeometry x="180" y="50" width="210" height="210" as="geometry"/>
                </mxCell>
                <mxCell id="13" value="" style="endArrow=none;html=1;exitX=0.5;exitY=0.5;exitDx=0;exitDy=0;exitPerimeter=0;entryX=0;entryY=0.25;entryDx=0;entryDy=0;" edge="1" parent="1" source="2" target="8">
                    <mxGeometry width="50" height="50" relative="1" as="geometry">
                        <mxPoint x="340" y="200" as="sourcePoint"/>
                        <mxPoint x="160" y="100" as="targetPoint"/>
                    </mxGeometry>
                </mxCell>
                <mxCell id="14" value="" style="endArrow=none;html=1;exitX=0.5;exitY=0.5;exitDx=0;exitDy=0;exitPerimeter=0;" edge="1" parent="1" source="3">
                    <mxGeometry width="50" height="50" relative="1" as="geometry">
                        <mxPoint x="70" y="220" as="sourcePoint"/>
                        <mxPoint x="180" y="200" as="targetPoint"/>
                    </mxGeometry>
                </mxCell>
                <mxCell id="15" value="" style="endArrow=none;html=1;" edge="1" parent="1">
                    <mxGeometry width="50" height="50" relative="1" as="geometry">
                        <mxPoint x="390" y="140" as="sourcePoint"/>
                        <mxPoint x="525" y="50" as="targetPoint"/>
                    </mxGeometry>
                </mxCell>
                <mxCell id="16" value="Service&lt;br&gt;&amp;nbsp;d'envoi d'emails&lt;br&gt;(mailtrap-dev, mailjet-prod)&amp;nbsp;" style="shape=umlActor;verticalLabelPosition=bottom;verticalAlign=top;html=1;outlineConnect=0;" vertex="1" parent="1">
                    <mxGeometry x="560" y="125" width="30" height="60" as="geometry"/>
                </mxCell>
                <mxCell id="17" value="" style="endArrow=none;html=1;entryX=0.5;entryY=0.5;entryDx=0;entryDy=0;entryPerimeter=0;" edge="1" parent="1" target="16">
                    <mxGeometry width="50" height="50" relative="1" as="geometry">
                        <mxPoint x="390" y="200" as="sourcePoint"/>
                        <mxPoint x="505" y="100" as="targetPoint"/>
                    </mxGeometry>
                </mxCell>
                <mxCell id="20" value="Service de paiement&lt;br&gt;(stripe, paypal)" style="shape=umlActor;verticalLabelPosition=bottom;verticalAlign=top;html=1;outlineConnect=0;" vertex="1" parent="1">
                    <mxGeometry x="510" y="250" width="30" height="60" as="geometry"/>
                </mxCell>
                <mxCell id="21" value="" style="endArrow=none;html=1;entryX=0.5;entryY=0.5;entryDx=0;entryDy=0;entryPerimeter=0;" edge="1" parent="1" target="20">
                    <mxGeometry width="50" height="50" relative="1" as="geometry">
                        <mxPoint x="390" y="240" as="sourcePoint"/>
                        <mxPoint x="575" y="160" as="targetPoint"/>
                    </mxGeometry>
                </mxCell>
            </root>
        </mxGraphModel>
    </diagram>
</mxfile>